<svg xmlns="http://www.w3.org/2000/svg" fill="none" viewBox="0 0 909 497.502" style="max-height: 500px" width="909" height="497.502">
<g clip-path="url(#clip0_250_376)">
<path fill="#32735F" d="M694.916 70C696.961 70.9824 713.594 88.1103 716.36 90.878L768.68 143.168L857.463 231.906C871.988 246.426 889.349 262.897 903.206 277.753C903.923 301.222 903.357 327.519 903.357 351.161L903.308 486.37C893.379 485.934 881.898 486.185 871.871 486.186L817.346 486.183C777.092 486.176 734.916 485.529 694.809 486.3V203.82C694.809 159.441 694.384 114.334 694.916 70Z"/>
<path fill="#32735F" d="M451.503 1.29688C453.001 2.67603 547.133 443.57 556.058 486.279C522.357 485.497 485.969 486.195 452.057 486.196L347.328 486.248L422.434 136.301C431.925 91.8856 441.243 45.5109 451.503 1.29688Z"/>
<path fill="#32735F" d="M277.825 0H382.326C381.072 7.46221 378.885 16.3587 377.273 23.8892L367.414 69.8105L338.018 206.966L302.515 372.573L288.487 438.07C285.208 454.198 281.67 470.272 277.874 486.286C274.04 480.86 262.987 468.656 258.148 463.02L218.778 417.149L121.894 304.141C104.807 284.227 86.1407 263.281 69.625 243.092C75.6201 235.131 86.4861 223.19 93.1682 215.404L137.796 163.398L277.825 0Z"/>
<path fill="#32735F" d="M0 0H208.707C165.391 51.8519 119.687 103.873 75.61 155.317L26.233 212.92C18.899 221.474 7.54641 235.525 0.0445283 243.093C16.7631 261.141 34.8236 283.311 51.0172 302.215L155.581 424.176C172.502 443.912 191.467 467.127 208.794 486.181L70.092 486.196L24.7969 486.199C16.9622 486.199 7.67883 486.43 0 486.111V0Z"/>
<path fill="#32735F" d="M521.195 0H625.508L625.518 332.476C625.518 383.112 625.03 434.664 625.562 485.247C623.488 478.865 621.776 469.735 620.37 463.076L613.188 429.532L584.518 295.848L543.362 103.966L527.377 29.362C525.328 19.5797 522.991 9.81693 521.195 0Z"/>
<path fill="#32735F" d="M694.734 0H903.336L903.356 134.21C903.36 158.307 903.843 184.494 903.165 208.458C895.924 200.72 887.103 192.295 879.545 184.743L834.895 140.127L694.734 0Z"/>
</g>
<defs>
<clipPath id="clip0_250_376">
<rect fill="white" height="999" width="909"/>
</clipPath>
</defs>
</svg>